<svg width="24" height="24" viewBox="0 0 24 24" fill="none" xmlns="http://www.w3.org/2000/svg">
<path d="M20.2572 1.62012C21.5709 1.09463 23 2.06214 23 3.47707V17.512C23 18.8368 22.131 20.0048 20.862 20.3855L12.2873 22.9579C12.0999 23.0141 11.9001 23.0141 11.7127 22.9579L3.13796 20.3855C1.869 20.0048 1 18.8368 1 17.512V3.47707C1 2.06214 2.42905 1.09463 3.74278 1.62012L12 4.923L20.2572 1.62012ZM11 6.67707L3 3.47707V17.512C3 17.9536 3.28967 18.3429 3.71265 18.4698L11 20.656V6.67707ZM13 20.656L20.2873 18.4698C20.7103 18.3429 21 17.9536 21 17.512V3.47707L13 6.67707V20.656Z" fill="black"/>
</svg>
