<svg width="43" height="43" viewBox="0 0 43 43" fill="none" xmlns="http://www.w3.org/2000/svg">
<path d="M36.7293 19.7084H34.0418V12.5417C34.0418 10.5709 32.4293 8.95835 30.4585 8.95835H23.2918V6.27085C23.2918 3.79835 21.2852 1.79169 18.8127 1.79169C16.3402 1.79169 14.3335 3.79835 14.3335 6.27085V8.95835H7.16683C5.196 8.95835 3.60141 10.5709 3.60141 12.5417V19.35H6.271C8.94058 19.35 11.1085 21.5179 11.1085 24.1875C11.1085 26.8571 8.94058 29.025 6.271 29.025H3.5835V35.8334C3.5835 37.8042 5.196 39.4167 7.16683 39.4167H13.9752V36.7292C13.9752 34.0596 16.1431 31.8917 18.8127 31.8917C21.4822 31.8917 23.6502 34.0596 23.6502 36.7292V39.4167H30.4585C32.4293 39.4167 34.0418 37.8042 34.0418 35.8334V28.6667H36.7293C39.2018 28.6667 41.2085 26.66 41.2085 24.1875C41.2085 21.715 39.2018 19.7084 36.7293 19.7084Z" fill="black" fill-opacity="0.87"/>
</svg>
