<svg width="35" height="37" fill="none" xmlns="http://www.w3.org/2000/svg"><circle cx="17.5" cy="19.5" r="17.5" fill="#FFD234"/><path d="M10.296 31V7.727h8.909c1.681 0 3.08.265 4.193.796 1.12.522 1.958 1.238 2.511 2.148.56.909.841 1.939.841 3.09 0 .947-.182 1.758-.546 2.432a4.587 4.587 0 0 1-1.465 1.625c-.614.417-1.3.716-2.057.898v.227c.826.046 1.617.3 2.375.761.765.455 1.39 1.099 1.875 1.932.485.834.727 1.841.727 3.023 0 1.205-.292 2.288-.875 3.25-.583.955-1.462 1.708-2.636 2.262-1.174.553-2.652.829-4.432.829h-9.42zm4.215-3.523h4.535c1.53 0 2.632-.291 3.306-.875.682-.59 1.023-1.348 1.023-2.273 0-.689-.17-1.31-.511-1.863-.341-.56-.826-1-1.455-1.318-.629-.326-1.379-.489-2.25-.489h-4.648v6.818zm0-9.852h4.17c.728 0 1.383-.133 1.967-.398a3.311 3.311 0 0 0 1.375-1.148c.34-.5.511-1.09.511-1.772 0-.902-.318-1.644-.954-2.228-.63-.583-1.565-.875-2.807-.875H14.51v6.421z" fill="#000"/></svg>