<svg width="35" height="33" viewBox="0 0 35 33" fill="none" xmlns="http://www.w3.org/2000/svg">
<ellipse cx="17.5" cy="16.0756" rx="17.5" ry="16.0756" fill="#FFEEC1"/>
<path d="M18 4.375C11.5781 4.375 6.375 9.625 6.375 16C6.375 22.4219 11.5781 27.625 18 27.625C24.375 27.625 29.625 22.4219 29.625 16C29.625 9.625 24.375 4.375 18 4.375ZM18 6.625C23.1562 6.625 27.375 10.8438 27.375 16C27.375 21.2031 23.1562 25.375 18 25.375C12.7969 25.375 8.625 21.2031 8.625 16C8.625 10.8438 12.7969 6.625 18 6.625ZM24.5625 12.7656L23.4844 11.6875C23.2969 11.4531 22.9219 11.4531 22.6875 11.6875L16.0781 18.25L13.2656 15.4375C13.0312 15.2031 12.7031 15.2031 12.4688 15.4375L11.3906 16.4688C11.2031 16.7031 11.2031 17.0781 11.3906 17.2656L15.6562 21.5781C15.8906 21.8125 16.2188 21.8125 16.4531 21.5781L24.5625 13.5625C24.75 13.3281 24.75 12.9531 24.5625 12.7656Z" fill="#9A8E8E"/>
</svg>
