<svg width="36" height="35" fill="none" xmlns="http://www.w3.org/2000/svg"><path d="M18 .063C8.367.063.562 7.938.562 17.5c0 9.633 7.805 17.438 17.438 17.438 9.563 0 17.438-7.805 17.438-17.438C35.438 7.937 27.561.062 18 .062zm0 7.734a2.97 2.97 0 0 1 2.953 2.953c0 1.688-1.336 2.953-2.953 2.953-1.688 0-2.953-1.265-2.953-2.953 0-1.617 1.265-2.953 2.953-2.953zm3.938 17.86a.855.855 0 0 1-.844.843h-6.188c-.492 0-.844-.352-.844-.844V23.97c0-.422.352-.844.844-.844h.844v-4.5h-.844c-.492 0-.844-.352-.844-.844v-1.687c0-.422.352-.844.844-.844h4.5c.422 0 .844.422.844.844v7.031h.844c.422 0 .843.422.843.844v1.687z" fill="#073D3D"/></svg>