<svg width="61" height="54" viewBox="0 0 61 54" fill="none" xmlns="http://www.w3.org/2000/svg">
<g filter="url(#filter0_d_4926_462)">
<path d="M4 19.9438C4 18.2869 5.34315 16.9438 7 16.9438H18.7222V35.6404H7C5.34314 35.6404 4 34.2973 4 32.6404V19.9438Z" fill="black"/>
<path d="M35.8003 44.9718C35.8003 47.6135 32.6327 48.9656 30.725 47.1382L18.7225 35.6404V16.9438L30.6873 5.07285C32.5806 3.19442 35.8003 4.53548 35.8003 7.2025L35.8003 44.9718Z" fill="black"/>
<path fill-rule="evenodd" clip-rule="evenodd" d="M41.6889 33.8294C45.338 33.3446 48.1669 29.8934 48.1669 25.7079C48.1669 21.5225 45.338 18.0712 41.6889 17.5864V33.8294Z" fill="black"/>
<path fill-rule="evenodd" clip-rule="evenodd" d="M57.0001 25.7079C57.0001 34.4591 50.3138 41.6752 41.689 42.6891V39.2929C48.4798 37.613 53.4667 32.0363 53.4667 25.4157C53.4667 18.795 48.4798 13.2183 41.689 11.5385V8.72656C50.3138 9.74048 57.0001 16.9566 57.0001 25.7079Z" fill="black"/>
</g>
<defs>
<filter id="filter0_d_4926_462" x="0" y="2.19647" width="61" height="51.7813" filterUnits="userSpaceOnUse" color-interpolation-filters="sRGB">
<feFlood flood-opacity="0" result="BackgroundImageFix"/>
<feColorMatrix in="SourceAlpha" type="matrix" values="0 0 0 0 0 0 0 0 0 0 0 0 0 0 0 0 0 0 127 0" result="hardAlpha"/>
<feOffset dy="2"/>
<feGaussianBlur stdDeviation="2"/>
<feComposite in2="hardAlpha" operator="out"/>
<feColorMatrix type="matrix" values="0 0 0 0 0 0 0 0 0 0 0 0 0 0 0 0 0 0 0.5 0"/>
<feBlend mode="normal" in2="BackgroundImageFix" result="effect1_dropShadow_4926_462"/>
<feBlend mode="normal" in="SourceGraphic" in2="effect1_dropShadow_4926_462" result="shape"/>
</filter>
</defs>
</svg>
