<svg width="35" height="33" viewBox="0 0 35 33" fill="none" xmlns="http://www.w3.org/2000/svg">
<ellipse cx="17.5" cy="16.0756" rx="17.5" ry="16.0756" fill="#FFEEC1"/>
<path d="M28.75 10.0625L21.9062 9.07812L18.8125 2.84375C18.2969 1.76562 16.7031 1.71875 16.1406 2.84375L13.0938 9.07812L6.20312 10.0625C4.98438 10.25 4.51562 11.75 5.40625 12.6406L10.3281 17.4688L9.15625 24.2656C8.96875 25.4844 10.2812 26.4219 11.3594 25.8594L17.5 22.625L23.5938 25.8594C24.6719 26.4219 25.9844 25.4844 25.7969 24.2656L24.625 17.4688L29.5469 12.6406C30.4375 11.75 29.9688 10.25 28.75 10.0625ZM22.1875 16.6719L23.3125 23.1406L17.5 20.0938L11.6406 23.1406L12.7656 16.6719L8.03125 12.0781L14.5469 11.1406L17.5 5.23438L20.4062 11.1406L26.9219 12.0781L22.1875 16.6719Z" fill="#9A8E8E"/>
</svg>
