<svg width="35" height="35" viewBox="0 0 35 35" fill="none" xmlns="http://www.w3.org/2000/svg">
<circle cx="17.5" cy="17.5" r="17.5" fill="#F5443B"/>
<path d="M11.5671 25C11.1688 25 10.7704 24.8533 10.456 24.5389C9.84801 23.9312 9.84801 22.9253 10.456 22.3175L22.3218 10.4558C22.9298 9.84806 23.9361 9.84806 24.544 10.4558C25.152 11.0636 25.152 12.0695 24.544 12.6773L12.6782 24.5389C12.3847 24.8533 11.9654 25 11.5671 25Z" fill="white"/>
<path d="M23.4329 25C23.0346 25 22.6363 24.8533 22.3218 24.5389L10.456 12.6773C9.84801 12.0695 9.84801 11.0636 10.456 10.4558C11.0639 9.84806 12.0702 9.84806 12.6782 10.4558L24.544 22.3175C25.152 22.9253 25.152 23.9312 24.544 24.5389C24.2296 24.8533 23.8312 25 23.4329 25Z" fill="white"/>
</svg>
