<svg width="50" height="47" fill="none" xmlns="http://www.w3.org/2000/svg"><g filter="url(#a)" fill="#000"><path d="M4 17.663a3 3 0 0 1 3-3h8.667v16.18H7a3 3 0 0 1-3-3v-10.18zM29.2 37.52c0 2.706-3.299 4.029-5.168 2.073l-8.365-8.75v-16.18l8.329-9.024c1.852-2.007 5.204-.696 5.204 2.035V37.52z"/><path fill-rule="evenodd" clip-rule="evenodd" d="M33.867 29.275C36.758 28.855 39 25.87 39 22.247c0-3.622-2.242-6.608-5.133-7.028v14.056z"/><path fill-rule="evenodd" clip-rule="evenodd" d="M46 22.247c0 7.573-5.299 13.818-12.133 14.696v-2.94c5.381-1.453 9.333-6.28 9.333-12.009S39.248 11.44 33.867 9.985V7.552C40.7 8.429 46 14.674 46 22.247z"/></g><defs><filter id="a" x="0" y="2.668" width="50" height="43.858" filterUnits="userSpaceOnUse" color-interpolation-filters="sRGB"><feFlood flood-opacity="0" result="BackgroundImageFix"/><feColorMatrix in="SourceAlpha" values="0 0 0 0 0 0 0 0 0 0 0 0 0 0 0 0 0 0 127 0" result="hardAlpha"/><feOffset dy="2"/><feGaussianBlur stdDeviation="2"/><feComposite in2="hardAlpha" operator="out"/><feColorMatrix values="0 0 0 0 0 0 0 0 0 0 0 0 0 0 0 0 0 0 0.5 0"/><feBlend in2="BackgroundImageFix" result="effect1_dropShadow_4926_402"/><feBlend in="SourceGraphic" in2="effect1_dropShadow_4926_402" result="shape"/></filter></defs></svg>