<svg width="38" height="38" viewBox="0 0 38 38" fill="none" xmlns="http://www.w3.org/2000/svg">
<path d="M6.59385 21.0503L4.4991 18.9933C1.09667 15.6535 0.703513 10.1184 3.93911 6.61868C4.72982 5.7618 5.68458 5.07248 6.74675 4.59159C7.80892 4.11071 8.95686 3.84807 10.1225 3.81925C11.2881 3.79044 12.4476 3.99603 13.5322 4.42384C14.6168 4.85165 15.6045 5.49296 16.4366 6.30972L18.8025 8.63233L20.8624 6.53603C24.2054 3.13746 29.7397 2.75126 33.2379 5.98685C34.0939 6.77836 34.7823 7.73372 35.2622 8.79627C35.7421 9.85883 36.0037 11.0069 36.0315 12.1725C36.0593 13.3381 35.8527 14.4973 35.4241 15.5816C34.9954 16.6658 34.3534 17.6529 33.536 18.4843L22.4644 29.7467L19.7996 32.4571C19.593 32.667 19.3115 32.7863 19.017 32.7889C18.7224 32.7915 18.4389 32.6772 18.2286 32.471L6.59385 21.0503Z" fill="#F5443B" stroke="#F5443B" stroke-width="0.772403" stroke-miterlimit="10"/>
</svg>
