<svg width="36" height="31" viewBox="0 0 36 31" fill="none" xmlns="http://www.w3.org/2000/svg">
<path d="M5.59361 18.0503L3.49886 15.9934C0.0964219 12.6535 -0.296731 7.1185 2.93886 3.61874C3.72957 2.76186 4.68433 2.07254 5.7465 1.59165C6.80867 1.11077 7.95661 0.848131 9.12221 0.819315C10.2878 0.790499 11.4473 0.996095 12.532 1.4239C13.6166 1.85171 14.6043 2.49302 15.4363 3.30978L17.8022 5.63239L19.8622 3.53609C23.2052 0.13752 28.7394 -0.248682 32.2376 2.98691C33.0937 3.77842 33.7821 4.73378 34.262 5.79634C34.7418 6.85889 35.0034 8.007 35.0312 9.17256C35.059 10.3381 34.8525 11.4974 34.4238 12.5816C33.9952 13.6659 33.3531 14.653 32.5358 15.4844L21.4642 26.7468L18.7994 29.4572C18.5927 29.667 18.3112 29.7863 18.0167 29.7889C17.7222 29.7916 17.4387 29.6772 17.2283 29.4711L5.59361 18.0503Z" fill="#F5443B" stroke="#F5443B" stroke-width="0.772403" stroke-miterlimit="10"/>
</svg>
