<svg width="50" height="47" viewBox="0 0 50 47" fill="none" xmlns="http://www.w3.org/2000/svg">
<g filter="url(#filter0_d_4926_402)">
<path d="M4 17.663C4 16.0061 5.34315 14.663 7 14.663H15.6667V30.8427H7C5.34315 30.8427 4 29.4996 4 27.8427V17.663Z" fill="black"/>
<path d="M29.2002 37.5201C29.2002 40.2256 25.9011 41.5488 24.0316 39.5931L15.6669 30.8427L15.6669 14.6629L23.9957 5.63895C25.8479 3.63206 29.2002 4.94262 29.2002 7.67365L29.2002 37.5201Z" fill="black"/>
<path fill-rule="evenodd" clip-rule="evenodd" d="M33.8667 29.2754C36.7584 28.8559 39.0001 25.8692 39.0001 22.2472C39.0001 18.6252 36.7584 15.6386 33.8667 15.219V29.2754Z" fill="black"/>
<path fill-rule="evenodd" clip-rule="evenodd" d="M46 22.2472C46 29.8204 40.7014 36.0651 33.8667 36.9426V34.0036C39.2481 32.5498 43.2 27.7238 43.2 21.9944C43.2 16.265 39.2481 11.439 33.8667 9.98526V7.55188C40.7014 8.42932 46 14.674 46 22.2472Z" fill="black"/>
</g>
<defs>
<filter id="filter0_d_4926_402" x="0" y="2.6676" width="50" height="43.8585" filterUnits="userSpaceOnUse" color-interpolation-filters="sRGB">
<feFlood flood-opacity="0" result="BackgroundImageFix"/>
<feColorMatrix in="SourceAlpha" type="matrix" values="0 0 0 0 0 0 0 0 0 0 0 0 0 0 0 0 0 0 127 0" result="hardAlpha"/>
<feOffset dy="2"/>
<feGaussianBlur stdDeviation="2"/>
<feComposite in2="hardAlpha" operator="out"/>
<feColorMatrix type="matrix" values="0 0 0 0 0 0 0 0 0 0 0 0 0 0 0 0 0 0 0.5 0"/>
<feBlend mode="normal" in2="BackgroundImageFix" result="effect1_dropShadow_4926_402"/>
<feBlend mode="normal" in="SourceGraphic" in2="effect1_dropShadow_4926_402" result="shape"/>
</filter>
</defs>
</svg>
