<svg width="48" height="39" fill="none" xmlns="http://www.w3.org/2000/svg"><g filter="url(#a)" fill="#FFD234"><path d="M4.522 14.73a3 3 0 0 1 3-3h7.833v12.944H7.522a3 3 0 0 1-3-3V14.73zM27.922 29.258c0 2.598-3.079 3.968-5.009 2.228l-7.558-6.812V11.73l7.52-7.019c1.917-1.79 5.047-.43 5.047 2.193v22.354z"/><path fill-rule="evenodd" clip-rule="evenodd" d="M32.255 23.42c2.685-.335 4.767-2.725 4.767-5.622 0-2.898-2.081-5.287-4.767-5.623V23.42z"/><path fill-rule="evenodd" clip-rule="evenodd" d="M43.522 17.798c0 6.058-4.92 11.054-11.267 11.756v-2.351c4.997-1.163 8.667-5.024 8.667-9.607 0-4.584-3.67-8.445-8.667-9.608V6.041c6.347.702 11.267 5.698 11.267 11.757z"/></g><defs><filter id="a" x=".522" y="1.898" width="47" height="36.365" filterUnits="userSpaceOnUse" color-interpolation-filters="sRGB"><feFlood flood-opacity="0" result="BackgroundImageFix"/><feColorMatrix in="SourceAlpha" values="0 0 0 0 0 0 0 0 0 0 0 0 0 0 0 0 0 0 127 0" result="hardAlpha"/><feOffset dy="2"/><feGaussianBlur stdDeviation="2"/><feComposite in2="hardAlpha" operator="out"/><feColorMatrix values="0 0 0 0 0 0 0 0 0 0 0 0 0 0 0 0 0 0 0.5 0"/><feBlend in2="BackgroundImageFix" result="effect1_dropShadow_4927_701"/><feBlend in="SourceGraphic" in2="effect1_dropShadow_4927_701" result="shape"/></filter></defs></svg>