<svg width="36" height="36" viewBox="0 0 36 36" fill="none" xmlns="http://www.w3.org/2000/svg">
<path d="M2.25 31.88V14.248C2.25 13.6709 2.51642 13.1262 2.97193 12.7719L16.8519 1.97632C17.5272 1.4511 18.4728 1.4511 19.1481 1.97632L33.0281 12.7719C33.4836 13.1262 33.75 13.6709 33.75 14.248V31.88C33.75 32.9128 32.9128 33.75 31.88 33.75H23.75C23.4739 33.75 23.25 33.5262 23.25 33.25V26.5136C23.25 25.8995 23.1496 25.2784 22.8245 24.7573C22.3994 24.0757 21.832 23.4888 21.1571 23.0389C20.2226 22.4159 19.1239 22.0834 18 22.0834C16.8761 22.0834 15.7774 22.4159 14.8429 23.0389C14.168 23.4888 13.6006 24.0757 13.1755 24.7573C12.8504 25.2784 12.75 25.8995 12.75 26.5136V33.25C12.75 33.5262 12.5261 33.75 12.25 33.75H4.12C3.08723 33.75 2.25 32.9128 2.25 31.88Z" stroke="#F5443B" stroke-width="3" stroke-linecap="round" stroke-linejoin="round"/>
</svg>
