<svg width="78" height="71" viewBox="0 0 78 71" fill="none" xmlns="http://www.w3.org/2000/svg">
<path fill-rule="evenodd" clip-rule="evenodd" d="M42.3214 38.1743C41.971 36.8655 41.4014 35.4919 40.6148 34.146C39.8478 32.8335 38.9565 31.6877 38.0146 30.7528L35.7656 32.0671C36.7075 33.0021 37.5988 34.1478 38.3659 35.4604C39.1524 36.8062 39.722 38.1798 40.0724 39.4886L42.3214 38.1743Z" fill="#242E22"/>
<g filter="url(#filter0_d_4774_153)">
<path fill-rule="evenodd" clip-rule="evenodd" d="M11.9016 52.3607C15.0194 51.5374 18.551 50.333 22.2545 48.7823C29.4045 45.7885 35.5433 42.1956 39.1041 39.1377C40.7498 36.5896 41.6124 34.4788 41.49 33.1278C40.2869 32.4611 37.9464 32.4025 34.8613 32.8953C30.7025 34.8786 25.1226 38.8676 19.6792 43.9723C16.5938 46.8657 13.9486 49.7458 11.9016 52.3607Z" fill="#FED381"/>
</g>
<path fill-rule="evenodd" clip-rule="evenodd" d="M23.8548 44.59C25.4175 44.2802 27.1747 43.7781 29.0038 43.0914C32.5353 41.7657 35.5189 40.0584 37.2035 38.5261C37.9283 37.1864 38.2716 36.0529 38.1448 35.2952C37.4952 34.8669 36.2901 34.7228 34.7286 34.8502C32.686 35.7559 30.0082 37.7102 27.4533 40.292C26.0052 41.7553 24.7827 43.2322 23.8548 44.59Z" fill="white"/>
<ellipse rx="2.38819" ry="4.84022" transform="matrix(0.541467 0.840722 -0.839189 0.54384 34.4528 37.6715)" fill="white"/>
<path fill-rule="evenodd" clip-rule="evenodd" d="M38.2501 30.3485L48.3591 24.4407C48.3357 24.3981 48.3116 24.3556 48.2869 24.3134C46.7989 21.7672 43.5922 20.8722 41.1245 22.3144L32.7906 27.1848C32.537 27.333 32.3011 27.5001 32.0836 27.6834C34.1463 28.0681 36.254 28.9803 38.2501 30.3485Z" fill="url(#paint0_linear_4774_153)"/>
<path fill-rule="evenodd" clip-rule="evenodd" d="M45.2434 29.8368L41.0563 32.2838C41.0563 32.2839 41.0563 32.2839 41.0563 32.2839L45.2562 29.8294C45.2519 29.8319 45.2477 29.8344 45.2434 29.8368ZM52.3304 31.7105L42.2214 37.6183C42.4337 40.029 42.1939 42.3131 41.5166 44.299C41.7831 44.1994 42.0445 44.0759 42.298 43.9278L50.632 39.0573C53.0997 37.6151 53.8938 34.382 52.4058 31.8358C52.3812 31.7936 52.356 31.7518 52.3304 31.7105Z" fill="url(#paint1_linear_4774_153)"/>
<path fill-rule="evenodd" clip-rule="evenodd" d="M47.4408 23.7605C45.4153 24.3248 43.2144 25.1739 40.9855 26.2928C39.2727 27.1527 37.6928 28.0968 36.2924 29.0751C37.0365 29.4439 37.7731 29.8816 38.4939 30.3842L48.0402 24.6504C48.0183 24.6095 47.9958 24.5688 47.9728 24.5283C47.8152 24.2516 47.6367 23.9953 47.4408 23.7605ZM47.2592 37.7377C45.5397 38.929 43.8163 39.9343 42.1728 40.7319C42.2888 39.6521 42.3002 38.5217 42.205 37.3614L51.7513 31.6276C51.7753 31.6672 51.7988 31.7073 51.8219 31.7479C52.1326 32.2936 52.336 32.8728 52.4385 33.4589C50.9834 34.909 49.2313 36.3712 47.2592 37.7377Z" fill="#421116"/>
<path fill-rule="evenodd" clip-rule="evenodd" d="M36.4161 31.2387C37.7776 32.522 39.0183 34.1535 40.0047 36.0573C40.5281 37.0674 40.9473 38.0912 41.2646 39.1059C44.1591 38.7946 48.2204 37.1285 52.2529 34.4047C57.1219 31.116 60.5724 27.2149 61.3361 24.4571C61.6608 23.6106 61.6914 22.8437 61.3785 22.2082C60.0725 19.5556 53.2762 20.2003 46.1985 23.6483C41.592 25.8924 38.0017 28.7709 36.4161 31.2387Z" fill="url(#paint2_linear_4774_153)"/>
<path fill-rule="evenodd" clip-rule="evenodd" d="M51.5602 34.8621C51.7911 34.7132 52.0221 34.5607 52.253 34.4047C52.8675 33.9897 53.4594 33.5648 54.0261 33.1338C53.2582 31.4107 52.3424 29.622 51.29 27.8212C50.2369 26.0193 49.1272 24.3423 48.0021 22.8267C47.4051 23.08 46.8029 23.3539 46.1986 23.6483C45.8862 23.8005 45.5785 23.9556 45.2757 24.1133C46.4554 25.6844 47.6203 27.4343 48.7231 29.3213C49.822 31.2017 50.7721 33.069 51.5602 34.8621ZM41.92 26.0969C42.7097 25.5674 43.5574 25.0501 44.4543 24.5541C45.7341 26.223 47.0011 28.1056 48.1952 30.149C49.2154 31.8946 50.1073 33.629 50.8605 35.3032C49.9886 35.8399 49.1218 36.3252 48.2723 36.7562C47.5236 35.0966 46.6389 33.3784 45.6283 31.6491C44.4443 29.6231 43.1887 27.7551 41.92 26.0969Z" fill="url(#paint3_radial_4774_153)"/>
<ellipse cx="47.2299" cy="30.4411" rx="1.15261" ry="3.74565" transform="rotate(59.6975 47.2299 30.4411)" fill="url(#paint4_linear_4774_153)"/>
<path d="M47.8271 31.4269C46.5469 32.1751 45.2642 32.8902 44.0522 33.5314C42.8402 34.1726 41.7227 34.7274 40.7635 35.164C39.8042 35.6006 39.022 35.9106 38.4616 36.0761C37.9011 36.2417 37.5733 36.2597 37.4969 36.129C37.4206 35.9983 37.5971 35.7215 38.0165 35.3145C38.4358 34.9074 39.0898 34.3781 39.941 33.7567C40.7922 33.1352 41.8241 32.4339 42.9776 31.6926C44.1311 30.9514 45.3837 30.1848 46.6639 29.4367L47.2455 30.4318L47.8271 31.4269Z" fill="url(#paint5_linear_4774_153)"/>
<g filter="url(#filter1_d_4774_153)">
<ellipse cx="56.4831" cy="24.7806" rx="3.26574" ry="3.16403" transform="rotate(59.6975 56.4831 24.7806)" fill="#C4C4C4"/>
<g filter="url(#filter2_i_4774_153)">
<ellipse cx="56.4831" cy="24.7805" rx="1.72892" ry="1.67507" transform="rotate(59.6975 56.4831 24.7805)" fill="#6CCAD7"/>
</g>
</g>
<defs>
<filter id="filter0_d_4774_153" x="11.9016" y="32.5698" width="45.5999" height="36.7909" filterUnits="userSpaceOnUse" color-interpolation-filters="sRGB">
<feFlood flood-opacity="0" result="BackgroundImageFix"/>
<feColorMatrix in="SourceAlpha" type="matrix" values="0 0 0 0 0 0 0 0 0 0 0 0 0 0 0 0 0 0 127 0" result="hardAlpha"/>
<feOffset dx="16" dy="17"/>
<feComposite in2="hardAlpha" operator="out"/>
<feColorMatrix type="matrix" values="0 0 0 0 0 0 0 0 0 0 0 0 0 0 0 0 0 0 0.39 0"/>
<feBlend mode="normal" in2="BackgroundImageFix" result="effect1_dropShadow_4774_153"/>
<feBlend mode="normal" in="SourceGraphic" in2="effect1_dropShadow_4774_153" result="shape"/>
</filter>
<filter id="filter1_d_4774_153" x="49.2924" y="21.5399" width="14.3814" height="14.4814" filterUnits="userSpaceOnUse" color-interpolation-filters="sRGB">
<feFlood flood-opacity="0" result="BackgroundImageFix"/>
<feColorMatrix in="SourceAlpha" type="matrix" values="0 0 0 0 0 0 0 0 0 0 0 0 0 0 0 0 0 0 127 0" result="hardAlpha"/>
<feOffset dy="4"/>
<feGaussianBlur stdDeviation="2"/>
<feComposite in2="hardAlpha" operator="out"/>
<feColorMatrix type="matrix" values="0 0 0 0 0 0 0 0 0 0 0 0 0 0 0 0 0 0 0.25 0"/>
<feBlend mode="normal" in2="BackgroundImageFix" result="effect1_dropShadow_4774_153"/>
<feBlend mode="normal" in="SourceGraphic" in2="effect1_dropShadow_4774_153" result="shape"/>
</filter>
<filter id="filter2_i_4774_153" x="54.7939" y="23.0648" width="3.37842" height="7.4314" filterUnits="userSpaceOnUse" color-interpolation-filters="sRGB">
<feFlood flood-opacity="0" result="BackgroundImageFix"/>
<feBlend mode="normal" in="SourceGraphic" in2="BackgroundImageFix" result="shape"/>
<feColorMatrix in="SourceAlpha" type="matrix" values="0 0 0 0 0 0 0 0 0 0 0 0 0 0 0 0 0 0 127 0" result="hardAlpha"/>
<feOffset dy="4"/>
<feGaussianBlur stdDeviation="2"/>
<feComposite in2="hardAlpha" operator="arithmetic" k2="-1" k3="1"/>
<feColorMatrix type="matrix" values="0 0 0 0 0 0 0 0 0 0 0 0 0 0 0 0 0 0 0.25 0"/>
<feBlend mode="normal" in2="shape" result="effect1_innerShadow_4774_153"/>
</filter>
<linearGradient id="paint0_linear_4774_153" x1="38.8195" y1="23.6614" x2="41.5876" y2="28.398" gradientUnits="userSpaceOnUse">
<stop stop-color="#BC1C2B"/>
<stop offset="1" stop-color="#931420"/>
</linearGradient>
<linearGradient id="paint1_linear_4774_153" x1="48.327" y1="40.4044" x2="42.6693" y2="36.3402" gradientUnits="userSpaceOnUse">
<stop stop-color="#BC1B2A"/>
<stop offset="1" stop-color="#931420"/>
</linearGradient>
<linearGradient id="paint2_linear_4774_153" x1="55.0661" y1="20.9417" x2="49.4137" y2="34.6895" gradientUnits="userSpaceOnUse">
<stop stop-color="#F5443B"/>
<stop offset="0.5125" stop-color="#BA1E26"/>
<stop offset="1" stop-color="#A01C23"/>
</linearGradient>
<radialGradient id="paint3_radial_4774_153" cx="0" cy="0" r="1" gradientUnits="userSpaceOnUse" gradientTransform="translate(47.9475 29.749) rotate(89.7352) scale(6.9785 6.73162)">
<stop stop-color="white"/>
<stop offset="0.408333" stop-color="white"/>
<stop offset="0.647916" stop-color="white"/>
<stop offset="1" stop-color="#E3E3E3"/>
</radialGradient>
<linearGradient id="paint4_linear_4774_153" x1="44.0021" y1="29.35" x2="44.6405" y2="32.6018" gradientUnits="userSpaceOnUse">
<stop stop-color="#D84444"/>
<stop offset="1" stop-color="#960202"/>
</linearGradient>
<linearGradient id="paint5_linear_4774_153" x1="48.4566" y1="25.9854" x2="44.1988" y2="33.6421" gradientUnits="userSpaceOnUse">
<stop stop-color="#D84444"/>
<stop offset="1" stop-color="#960202"/>
</linearGradient>
</defs>
</svg>
