<svg width="35" height="37" fill="none" xmlns="http://www.w3.org/2000/svg"><g filter="url(#b)" clip-path="url(#a)"><path d="M16.674 34.323c-.37.002-.725-.15-.99-.424L2.724 20.445C1.08 18.784.109 16.517.009 14.116c-.1-2.4.678-4.748 2.174-6.557a8.618 8.618 0 0 1 2.769-2.113 8.2 8.2 0 0 1 3.329-.804 8.173 8.173 0 0 1 3.362.63 8.553 8.553 0 0 1 2.863 1.967l1.973 2.048 1.69-1.818c1.573-1.734 3.718-2.76 5.988-2.864 2.271-.105 4.492.72 6.202 2.303a9.078 9.078 0 0 1 1.996 2.929 9.539 9.539 0 0 1 .158 7.073 9.142 9.142 0 0 1-1.862 3.025L17.683 33.878a1.41 1.41 0 0 1-.462.33c-.173.076-.36.116-.547.115zM5.212 21.951l10.984 11.396c.13.133.304.208.485.206a.667.667 0 0 0 .482-.216L30.13 19.394a8.367 8.367 0 0 0 1.703-2.769 8.73 8.73 0 0 0-.146-6.472 8.307 8.307 0 0 0-1.826-2.68c-1.57-1.447-3.608-2.2-5.69-2.099-2.081.1-4.046 1.046-5.485 2.64l-2.201 2.366-2.493-2.591a7.824 7.824 0 0 0-2.62-1.799 7.477 7.477 0 0 0-6.12.16 7.884 7.884 0 0 0-2.534 1.933C1.35 9.743.64 11.898.736 14.099c.096 2.2.99 4.277 2.499 5.797l1.977 2.055z" fill="#F5443B"/></g><defs><clipPath id="a"><path fill="#fff" d="M0 0h35v37H0z"/></clipPath><filter id="b" x="-4" y=".596" width="41.115" height="37.727" filterUnits="userSpaceOnUse" color-interpolation-filters="sRGB"><feFlood flood-opacity="0" result="BackgroundImageFix"/><feGaussianBlur in="BackgroundImage" stdDeviation="2"/><feComposite in2="SourceAlpha" operator="in" result="effect1_backgroundBlur_4717_554"/><feBlend in="SourceGraphic" in2="effect1_backgroundBlur_4717_554" result="shape"/></filter></defs></svg>