<svg width="124" height="116" viewBox="0 0 124 116" fill="none" xmlns="http://www.w3.org/2000/svg">
<g filter="url(#filter0_d_4715_238)">
<path d="M4 40.12C4 38.4631 5.34315 37.12 7 37.12H36V78.08H7C5.34315 78.08 4 76.7368 4 75.08V40.12Z" fill="#035959"/>
<path d="M73.12 106.853C73.12 109.501 69.9408 110.85 68.0362 109.012L36 78.08V37.12L67.9987 5.12137C69.8886 3.23148 73.12 4.56997 73.12 7.24268L73.12 106.853Z" fill="#035959"/>
<path fill-rule="evenodd" clip-rule="evenodd" d="M85.92 74.1123C93.8513 73.05 100 65.4892 100 56.32C100 47.1508 93.8513 39.5901 85.92 38.5277V74.1123Z" fill="#035959"/>
<path fill-rule="evenodd" clip-rule="evenodd" d="M119.2 56.32C119.2 75.492 104.667 91.3008 85.92 93.5221V86.0818C100.68 82.4017 111.52 70.1844 111.52 55.68C111.52 41.1757 100.68 28.9584 85.92 25.2782V19.1179C104.667 21.3392 119.2 37.1481 119.2 56.32Z" fill="#035959"/>
</g>
<defs>
<filter id="filter0_d_4715_238" x="0" y="2.23669" width="123.2" height="113.623" filterUnits="userSpaceOnUse" color-interpolation-filters="sRGB">
<feFlood flood-opacity="0" result="BackgroundImageFix"/>
<feColorMatrix in="SourceAlpha" type="matrix" values="0 0 0 0 0 0 0 0 0 0 0 0 0 0 0 0 0 0 127 0" result="hardAlpha"/>
<feOffset dy="2"/>
<feGaussianBlur stdDeviation="2"/>
<feComposite in2="hardAlpha" operator="out"/>
<feColorMatrix type="matrix" values="0 0 0 0 0 0 0 0 0 0 0 0 0 0 0 0 0 0 0.5 0"/>
<feBlend mode="normal" in2="BackgroundImageFix" result="effect1_dropShadow_4715_238"/>
<feBlend mode="normal" in="SourceGraphic" in2="effect1_dropShadow_4715_238" result="shape"/>
</filter>
</defs>
</svg>
