<svg width="36" height="35" fill="none" xmlns="http://www.w3.org/2000/svg"><path d="M.5 17.5C.5 7.835 8.335 0 18 0s17.5 7.835 17.5 17.5S27.665 35 18 35 .5 27.165.5 17.5z" fill="#0077B5"/><path fill-rule="evenodd" clip-rule="evenodd" d="M13.128 10.808c0 1.144-.861 2.06-2.244 2.06h-.025c-1.332 0-2.193-.916-2.193-2.06 0-1.168.887-2.058 2.244-2.058 1.357 0 2.192.89 2.218 2.058zm-.261 3.686V26.41H8.9V14.494h3.966zM27.169 26.41v-6.832c0-3.66-1.956-5.364-4.566-5.364-2.106 0-3.048 1.157-3.575 1.968v-1.687h-3.966c.052 1.118 0 11.915 0 11.915h3.967v-6.654c0-.357.025-.712.13-.967.287-.711.94-1.448 2.035-1.448 1.436 0 2.01 1.093 2.01 2.694v6.375h3.965z" fill="#fff"/></svg>