<svg width="159" height="62" fill="none" xmlns="http://www.w3.org/2000/svg"><g clip-path="url(#a)"><path d="M90.142 2.244c-4.551 1.108-6.811 3.623-6.834 7.602-.025 4.634 2.45 6.762 10.39 8.933 3.858 1.053 5.17 2.88 3.344 4.655-2.072 2.013-6.125.707-6.636-2.139-.253-1.42-.24-1.416-4.492-1.168l-3.768.219.181 1.244c.28 1.918 1.789 4.879 3.075 6.033 3.812 3.42 14.31 3.07 17.904-.6l1.051-1.074.202 1.248c.739 4.59 5.185 8.902 10.3 9.991l1.643.351-.971 1.333c-3.202 4.398-3.293 13.392-.181 18.063 4.762 7.148 18.163 6.94 22.572-.348l.821-1.357v6.47h20.768v-6.956h-12.403V34.48h-8.365l-.017 3.1c-.014 2.532-.079 2.992-.36 2.509-1.589-2.734-4.684-5.005-7.718-5.662l-1.636-.355 1.66-1.307c5.163-4.069 8.378-11.491 7.552-17.434-2.171-15.616-23.625-15.858-31.796-.36l-.998 1.886c-.023.039-.758-.66-1.636-1.548-1.82-1.849-3.281-2.525-8.25-3.816-4.624-1.2-5.57-2.043-4.016-3.576 1.478-1.457 4.697-.513 5.421 1.59.426 1.233.348 1.221 5.263.88l2.843-.198-.182-1.187C104.034 3.5 97.43.469 90.14 2.246l.002-.002zM1.732 16.029v13.61h8.365v-10.89h.85c1.342 0 2.153 1.035 4.74 6.05l2.419 4.686 4.651.084c2.558.046 4.65.002 4.65-.098 0-1.532-5.214-10.377-6.66-11.299l-.794-.505 1.6-.878c5.934-3.257 4.811-12.588-1.692-14.05-.82-.185-4.976-.322-9.779-.322h-8.35v13.612zM128.383 4.79c13.055 3.573 11.859 22.778-1.856 29.79-13.974 7.143-26.427-4.585-19.785-18.632 3.875-8.196 13.787-13.306 21.639-11.156l.002-.002zM15.861 8.554c2.938 1.558.989 4.433-3.173 4.681l-2.59.155V8.165l2.524.004c1.444.002 2.829.167 3.239.384v.001zm107.905 2.406c-2.297.64-4.633 3.073-4.635 4.829-.004 2.868 2.183 3.902 5.623 2.66 2.105-.759 2.641-.759 3.03.002.66 1.295-1.502 2.614-2.764 1.686-.634-.465-2.971 1.002-2.995 1.88-.037 1.32 3.152 1.82 5.106.8 6.203-3.241 4.442-10.2-1.993-7.872-2.572.93-3.124.97-3.124.222 0-1.174 1.749-2.022 2.513-1.222.312.327 2.677-1.318 2.677-1.863 0-.813-2.095-1.5-3.441-1.123l.003.001zm-9.311 6.526c-1.377 1.044-1.442.773 1.082 4.53 1.554 2.312 2.151 3.453 2.092 3.994-.103.924-1.092 1.17-1.787.443-.441-.462-.556-.426-1.602.514-2.64 2.372 1.374 4.407 4.356 2.21 3.276-2.414 3.282-3.911.024-8.899-2.526-3.87-2.642-3.946-4.167-2.79l.002-.002zM8.57 34.183c-4.719.78-7.482 3.674-7.519 7.874-.036 4.286 2.613 6.727 9.177 8.45 4.023 1.056 5.348 1.862 5.348 3.25 0 3.912-6.678 3.52-7.385-.431-.247-1.38-.216-1.372-4.475-1.13l-3.778.215.189 1.24c.861 5.684 4.014 8.05 11.037 8.28 5.57.183 7.485-.383 9.916-2.932l1.665-1.746.612.866c3.538 5.018 15.492 5.355 19.418.546 1.147-1.404 2.435-4.051 2.567-5.27.092-.858.066-.873-3.432-1.986l-3.524-1.121-.473 1.492c-1.611 5.086-7.696 5.144-9.033.087-.454-1.719-.4-5.824.104-7.593 1.212-4.276 6.332-5.153 8.41-1.44.866 1.55.634 1.522 4.566.59 3.743-.888 3.583-.73 2.73-2.659-3.387-7.638-14.767-9.43-20.802-3.278l-1.684 1.716-.698-1.25c-1.74-3.115-7.23-4.715-12.932-3.77H8.57zm79.696.008c-3.195.581-6.351 2.69-8.134 5.43-.477.735-.49.675-.505-2.195l-.015-2.95h-8.365v9.377h-8.365v-9.376h-8.366v27.22h8.366V50.808h8.365v10.889h8.365v-6.154l.903 1.428c3.76 5.948 15.384 6.992 20.674 1.856 6.122-5.942 4.921-19.46-2.06-23.195-2.695-1.442-7.423-2.07-10.864-1.444l.001.003zm-75.005 5.577c.482.261 1.048.97 1.355 1.699l.527 1.252 5.636-.285-.185 1.543c-.244 2.04-.353 2.117-1.97 1.368-.761-.353-2.892-1.037-4.737-1.523-4.367-1.147-4.91-1.393-5.134-2.325-.414-1.725 2.474-2.833 4.51-1.729h-.002zm79.952 1.069c4.272 1.244 5.137 11.524 1.175 13.969-2.958 1.825-6.702.271-7.58-3.148-1.744-6.795 1.488-12.253 6.405-10.821zm34.875-.008c4.963 1.445 4.862 13.14-.126 14.549-4.009 1.13-6.678-1.79-6.657-7.29.022-5.713 2.604-8.476 6.784-7.258h-.001z" fill="#000"/></g><defs><clipPath id="a"><path fill="#fff" d="M0 0h159v62H0z"/></clipPath></defs></svg>