<svg width="149" height="51" viewBox="0 0 149 51" fill="none" xmlns="http://www.w3.org/2000/svg">
<g clip-path="url(#clip0_4703_832)">
<path d="M84.4725 1.84562C80.2076 2.75739 78.0896 4.82572 78.0686 8.09935C78.0446 11.9113 80.3646 13.6618 87.8041 15.4468C91.4201 16.3138 92.6491 17.8166 90.9387 19.2763C88.9974 20.9321 85.1985 19.8583 84.7201 17.5168C84.483 16.3483 84.4947 16.3517 80.5105 16.5557L76.9795 16.7359L77.1494 17.7593C77.4111 19.3369 78.8253 21.7725 80.0309 22.7222C83.6032 25.5351 93.4409 25.2467 96.8088 22.2281L97.7939 21.3452L97.9829 22.3714C98.6756 26.1471 102.842 29.6945 107.635 30.5904L109.175 30.8788L108.265 31.9753C105.264 35.5929 105.179 42.9913 108.095 46.8339C112.558 52.713 125.116 52.5424 129.248 46.5471L130.017 45.4314V50.7529H149.479V45.0313H137.856V28.3622H130.017L130.001 30.9122C129.988 32.9953 129.927 33.3733 129.664 32.976C128.174 30.7275 125.274 28.8592 122.431 28.3192L120.898 28.0273L122.453 26.9518C127.292 23.6051 130.305 17.4992 129.531 12.6112C127.496 -0.234616 107.391 -0.433514 99.734 12.3148C99.2402 13.1353 98.8196 13.8335 98.7987 13.8658C98.7778 13.8981 98.0888 13.324 97.2662 12.5925C95.5607 11.0721 94.1908 10.5156 89.5342 9.45425C85.2015 8.46599 84.3149 7.77295 85.7711 6.51212C87.1564 5.31362 90.1727 6.08995 90.8518 7.82055C91.2502 8.83432 91.1775 8.82469 95.7836 8.54419L98.4471 8.38155L98.2772 7.40462C97.491 2.87865 91.3019 0.385885 84.4707 1.84732L84.4725 1.84562ZM1.62239 13.1852V24.3797H9.46151V15.423H10.2582C11.5155 15.423 12.2759 16.2741 14.6999 20.3989L16.9669 24.2539L21.3255 24.3225C23.7224 24.3604 25.6822 24.3242 25.6822 24.2426C25.6822 22.9817 20.7972 15.7063 19.4414 14.9481L18.6983 14.5322L20.1981 13.8102C25.7585 11.131 24.7057 3.45552 18.6121 2.25249C17.8431 2.10119 13.9488 1.98785 9.44797 1.98785H1.62239V13.1824V13.1852ZM120.309 3.93945C132.543 6.87819 131.423 22.6757 118.57 28.4433C105.475 34.3196 93.8054 24.6727 100.03 13.1178C103.661 6.37612 112.949 2.17202 120.307 3.94115L120.309 3.93945ZM14.8631 7.03628C17.6165 8.31752 15.7897 10.6828 11.8898 10.8868L9.46213 11.0143V6.71612L11.8277 6.71952C13.1816 6.72122 14.4789 6.85665 14.8631 7.03515V7.03628ZM115.982 9.01565C113.829 9.54152 111.64 11.5436 111.639 12.9874C111.635 15.3465 113.684 16.197 116.908 15.1759C118.88 14.5514 119.382 14.5514 119.747 15.1776C120.366 16.2424 118.339 17.3275 117.157 16.5642C116.563 16.1817 114.372 17.3882 114.35 18.1101C114.316 19.197 117.304 19.6084 119.135 18.7686C124.948 16.1024 123.298 10.3791 117.268 12.2933C114.857 13.0583 114.34 13.0917 114.34 12.4763C114.34 11.5107 115.979 10.8126 116.695 11.4705C116.987 11.7396 119.204 10.387 119.204 9.93875C119.204 9.26952 117.24 8.70512 115.979 9.01452L115.982 9.01565ZM107.256 14.3837C105.966 15.2428 105.905 15.0195 108.271 18.1101C109.727 20.0113 110.286 20.9502 110.231 21.3951C110.134 22.1555 109.208 22.3578 108.556 21.76C108.143 21.3792 108.035 21.4092 107.055 22.1822C104.581 24.1332 108.342 25.8077 111.137 24.0006C114.207 22.015 114.212 20.7831 111.16 16.6804C108.792 13.4974 108.683 13.434 107.255 14.3854L107.256 14.3837ZM8.03124 28.1186C3.60865 28.7606 1.01962 31.1406 0.985139 34.5956C0.950659 38.1208 3.43379 40.1291 9.58466 41.5457C13.3546 42.4144 14.5959 43.0774 14.5959 44.2198C14.5959 47.4374 8.33786 47.1155 7.67598 43.8645C7.44386 42.73 7.47341 42.7363 3.48181 42.9352L-0.0578613 43.112L0.118845 44.132C0.926031 48.8081 3.88017 50.7541 10.462 50.9439C15.6813 51.0935 17.4755 50.6283 19.7542 48.531L21.3144 47.0951L21.8876 47.8074C25.2038 51.935 36.4059 52.2127 40.0841 48.2568C41.1597 47.1013 42.3665 44.9242 42.4896 43.9218C42.5765 43.2157 42.5518 43.2032 39.2738 42.2881L35.9718 41.3655L35.5285 42.5929C34.0182 46.7766 28.3162 46.8242 27.0638 42.6649C26.6378 41.2511 26.6895 37.8743 27.1605 36.4191C28.2965 32.9018 33.0946 32.1799 35.0415 35.2348C35.8536 36.5098 35.6356 36.486 39.3206 35.7193C42.8289 34.9894 42.6781 35.1186 41.8783 33.5325C38.7055 27.2499 28.0403 25.776 22.3851 30.8357L20.8077 32.2479L20.1532 31.2199C18.5222 28.6569 13.3774 27.3405 8.03493 28.1186H8.03124ZM82.7147 28.1248C79.7206 28.6031 76.7627 30.3371 75.0917 32.5918C74.6447 33.1959 74.633 33.1466 74.6189 30.7859L74.6047 28.36H66.7656V36.0723H58.9264V28.36H51.0873V50.7507H58.9264V41.7939H66.7656V50.7507H74.6047V45.6886L75.4513 46.8633C78.9737 51.7559 89.8673 52.615 94.825 48.3899C100.562 43.5019 99.4366 32.3822 92.8941 29.3097C90.3691 28.1237 85.9379 27.6074 82.7135 28.1225L82.7147 28.1248ZM12.4267 32.712C12.8787 32.9273 13.4088 33.5104 13.6963 34.1099L14.1901 35.1396L19.4716 34.9055L19.2986 36.1743C19.0702 37.8528 18.968 37.9162 17.4527 37.2997C16.7391 37.0096 14.7424 36.4469 13.0129 36.0468C8.92093 35.1033 8.41174 34.901 8.2024 34.1343C7.81451 32.7159 10.5211 31.8042 12.4292 32.7125L12.4267 32.712ZM87.3503 33.5914C91.3536 34.6148 92.1645 43.0712 88.4518 45.0823C85.6793 46.5834 82.1711 45.3056 81.3485 42.4926C79.7138 36.9036 82.7424 32.4139 87.3503 33.5914ZM120.032 33.5852C124.683 34.7741 124.588 44.3938 119.914 45.5526C116.157 46.4831 113.656 44.0799 113.675 39.5567C113.696 34.8568 116.115 32.5839 120.032 33.5863L120.032 33.5852Z" fill="black"/>
</g>
<rect x="0.5" y="0.5" width="148" height="50" stroke="black"/>
<defs>
<clipPath id="clip0_4703_832">
<rect width="149" height="51" fill="white"/>
</clipPath>
</defs>
</svg>
