<svg width="271" height="202" viewBox="0 0 271 202" fill="none" xmlns="http://www.w3.org/2000/svg">
<path fill-rule="evenodd" clip-rule="evenodd" d="M146.223 90.5256C145.286 86.3608 143.599 82.0336 141.151 77.8436C138.763 73.7575 135.906 70.2386 132.826 67.4138L124.703 72.161C127.783 74.9858 130.64 78.5047 133.028 82.5908C135.477 86.7808 137.163 91.108 138.1 95.2728L146.223 90.5256Z" fill="#242E22"/>
<g filter="url(#filter0_d_4715_290)">
<path fill-rule="evenodd" clip-rule="evenodd" d="M37.131 143.099C48.1753 139.754 60.7441 135.085 73.9871 129.256C99.555 118.002 121.729 105.027 134.802 94.345C141.091 85.7312 144.555 78.7048 144.422 74.3539C140.374 72.455 132.231 72.7733 121.373 75.0402C106.449 82.3696 86.1365 96.5071 66.0574 114.23C54.6765 124.275 44.8329 134.182 37.131 143.099Z" fill="#FED381"/>
</g>
<path fill-rule="evenodd" clip-rule="evenodd" d="M80.4747 115.324C85.9881 113.981 92.2209 111.973 98.7445 109.35C111.339 104.288 122.108 98.1076 128.311 92.7769C131.128 88.2785 132.571 84.531 132.293 82.1035C130.123 80.8568 125.954 80.6517 120.485 81.4036C113.17 84.782 103.413 91.6961 93.9491 100.616C88.5847 105.672 84.0033 110.723 80.4747 115.324Z" fill="white"/>
<ellipse rx="7.43749" ry="17.4775" transform="matrix(0.547275 0.836953 -0.842631 0.538491 118.911 90.6051)" fill="white"/>
<path fill-rule="evenodd" clip-rule="evenodd" d="M133.734 66.0525L170.247 44.714C170.175 44.5811 170.1 44.4488 170.023 44.3173C165.391 36.3905 154.421 34.1804 145.522 39.3811L115.37 57.0023C114.462 57.5331 113.611 58.1205 112.818 58.756C119.925 59.5537 127.074 62.0519 133.734 66.0525Z" fill="url(#paint0_linear_4715_290)"/>
<path fill-rule="evenodd" clip-rule="evenodd" d="M145.995 88.7457L182.508 67.4073C182.588 67.5356 182.667 67.6655 182.744 67.797C187.376 75.7239 183.918 86.3659 175.019 91.5665L144.867 109.188C143.958 109.718 143.029 110.172 142.086 110.55C144.879 103.967 146.211 96.5125 145.995 88.7457Z" fill="url(#paint1_linear_4715_290)"/>
<path fill-rule="evenodd" clip-rule="evenodd" d="M167.195 42.7093C160.014 44.9776 152.159 48.2072 144.149 52.3167C137.993 55.475 132.282 58.8772 127.189 62.3514C129.702 63.3848 132.174 64.6429 134.577 66.1149L169.091 45.4628C169.023 45.3351 168.954 45.208 168.882 45.0817C168.393 44.2192 167.827 43.4276 167.195 42.7093ZM163.526 88.0377C157.275 92.2714 151.051 95.9031 145.15 98.8442C145.789 95.3205 146.074 91.6554 145.994 87.9163L180.508 67.2641C180.583 67.3874 180.656 67.5122 180.728 67.6385C181.692 69.3391 182.275 71.1717 182.505 73.0485C177.119 78.0632 170.696 83.1817 163.526 88.0377Z" fill="#421116"/>
<path fill-rule="evenodd" clip-rule="evenodd" d="M127.15 69.3358C131.616 73.1982 135.586 78.2151 138.61 84.1697C140.214 87.3288 141.453 90.5549 142.338 93.7737C152.493 92.1363 167.008 85.8559 181.653 76.1542C199.335 64.4404 212.208 51.0509 215.468 41.949C216.783 39.1358 217.056 36.644 216.104 34.653C212.129 26.3416 188.304 29.9068 162.89 42.6163C146.349 50.8883 133.212 60.9951 127.15 69.3358Z" fill="url(#paint2_linear_4715_290)"/>
<path fill-rule="evenodd" clip-rule="evenodd" d="M179.139 77.787C179.976 77.2541 180.814 76.7098 181.653 76.1543C183.885 74.6759 186.04 73.1709 188.108 71.6512C185.806 66.2347 183.003 60.6376 179.727 55.0313C176.448 49.4215 172.945 44.2289 169.354 39.5626C167.218 40.5127 165.06 41.5312 162.89 42.6163C161.768 43.1773 160.662 43.7468 159.573 44.3235C163.343 49.1578 167.022 54.5749 170.455 60.4496C173.877 66.3038 176.782 72.148 179.139 77.787ZM147.448 51.4795C150.315 49.5925 153.381 47.732 156.615 45.9303C160.712 51.0597 164.718 56.8846 168.436 63.246C171.612 68.6808 174.344 74.1069 176.605 79.3682C173.45 81.2963 170.324 83.0572 167.27 84.6384C165.021 79.4234 162.311 74.0481 159.165 68.6643C155.479 62.3569 151.509 56.577 147.448 51.4795Z" fill="url(#paint3_radial_4715_290)"/>
<ellipse cx="165.009" cy="64.4015" rx="3.58839" ry="13.5288" transform="rotate(59.6975 165.009 64.4015)" fill="url(#paint4_linear_4715_290)"/>
<path d="M166.876 67.4666C162.252 70.1689 157.626 72.7646 153.263 75.1054C148.901 77.4463 144.886 79.4865 141.448 81.1097C138.01 82.7328 135.217 83.907 133.228 84.5652C131.239 85.2234 130.092 85.3528 129.855 84.946C129.617 84.5391 130.292 83.604 131.842 82.194C133.392 80.784 135.786 78.9267 138.887 76.7282C141.989 74.5298 145.737 72.0331 149.918 69.3808C154.099 66.7286 158.631 63.9726 163.255 61.2704L165.065 64.3685L166.876 67.4666Z" fill="url(#paint5_linear_4715_290)"/>
<g filter="url(#filter1_d_4715_290)">
<ellipse cx="198.485" cy="44.0507" rx="10.1671" ry="11.4281" transform="rotate(59.6975 198.485 44.0507)" fill="#C4C4C4"/>
<g filter="url(#filter2_i_4715_290)">
<ellipse cx="198.485" cy="44.0507" rx="5.38259" ry="6.05016" transform="rotate(59.6975 198.485 44.0507)" fill="#6CCAD7"/>
</g>
</g>
<defs>
<filter id="filter0_d_4715_290" x="37.131" y="73.1122" width="123.295" height="86.9872" filterUnits="userSpaceOnUse" color-interpolation-filters="sRGB">
<feFlood flood-opacity="0" result="BackgroundImageFix"/>
<feColorMatrix in="SourceAlpha" type="matrix" values="0 0 0 0 0 0 0 0 0 0 0 0 0 0 0 0 0 0 127 0" result="hardAlpha"/>
<feOffset dx="16" dy="17"/>
<feComposite in2="hardAlpha" operator="out"/>
<feColorMatrix type="matrix" values="0 0 0 0 0 0 0 0 0 0 0 0 0 0 0 0 0 0 0.39 0"/>
<feBlend mode="normal" in2="BackgroundImageFix" result="effect1_dropShadow_4715_290"/>
<feBlend mode="normal" in="SourceGraphic" in2="effect1_dropShadow_4715_290" result="shape"/>
</filter>
<filter id="filter1_d_4715_290" x="183.362" y="33.547" width="30.2458" height="29.0074" filterUnits="userSpaceOnUse" color-interpolation-filters="sRGB">
<feFlood flood-opacity="0" result="BackgroundImageFix"/>
<feColorMatrix in="SourceAlpha" type="matrix" values="0 0 0 0 0 0 0 0 0 0 0 0 0 0 0 0 0 0 127 0" result="hardAlpha"/>
<feOffset dy="4"/>
<feGaussianBlur stdDeviation="2"/>
<feComposite in2="hardAlpha" operator="out"/>
<feColorMatrix type="matrix" values="0 0 0 0 0 0 0 0 0 0 0 0 0 0 0 0 0 0 0.25 0"/>
<feBlend mode="normal" in2="BackgroundImageFix" result="effect1_dropShadow_4715_290"/>
<feBlend mode="normal" in="SourceGraphic" in2="effect1_dropShadow_4715_290" result="shape"/>
</filter>
<filter id="filter2_i_4715_290" x="192.596" y="38.49" width="11.7772" height="15.1215" filterUnits="userSpaceOnUse" color-interpolation-filters="sRGB">
<feFlood flood-opacity="0" result="BackgroundImageFix"/>
<feBlend mode="normal" in="SourceGraphic" in2="BackgroundImageFix" result="shape"/>
<feColorMatrix in="SourceAlpha" type="matrix" values="0 0 0 0 0 0 0 0 0 0 0 0 0 0 0 0 0 0 127 0" result="hardAlpha"/>
<feOffset dy="4"/>
<feGaussianBlur stdDeviation="2"/>
<feComposite in2="hardAlpha" operator="arithmetic" k2="-1" k3="1"/>
<feColorMatrix type="matrix" values="0 0 0 0 0 0 0 0 0 0 0 0 0 0 0 0 0 0 0.25 0"/>
<feBlend mode="normal" in2="shape" result="effect1_innerShadow_4715_290"/>
</filter>
<linearGradient id="paint0_linear_4715_290" x1="137.17" y1="44.2624" x2="145.788" y2="59.0085" gradientUnits="userSpaceOnUse">
<stop stop-color="#BC1C2B"/>
<stop offset="1" stop-color="#931420"/>
</linearGradient>
<linearGradient id="paint1_linear_4715_290" x1="166.666" y1="96.4479" x2="158.744" y2="87.4805" gradientUnits="userSpaceOnUse">
<stop stop-color="#BC1B2A"/>
<stop offset="1" stop-color="#931420"/>
</linearGradient>
<linearGradient id="paint2_linear_4715_290" x1="194.381" y1="31.9205" x2="178.606" y2="79.9626" gradientUnits="userSpaceOnUse">
<stop stop-color="#DA3329"/>
<stop offset="0.5125" stop-color="#BA1E26"/>
<stop offset="1" stop-color="#A01C23"/>
</linearGradient>
<radialGradient id="paint3_radial_4715_290" cx="0" cy="0" r="1" gradientUnits="userSpaceOnUse" gradientTransform="translate(167.66 62.0038) rotate(93.5525) scale(22.648 23.3238)">
<stop stop-color="white"/>
<stop offset="0.408333" stop-color="white"/>
<stop offset="0.647916" stop-color="white"/>
<stop offset="1" stop-color="#E3E3E3"/>
</radialGradient>
<linearGradient id="paint4_linear_4715_290" x1="154.96" y1="60.4606" x2="157.601" y2="72.0567" gradientUnits="userSpaceOnUse">
<stop stop-color="#D84444"/>
<stop offset="1" stop-color="#960202"/>
</linearGradient>
<linearGradient id="paint5_linear_4715_290" x1="170.252" y1="49.6983" x2="157.335" y2="77.1206" gradientUnits="userSpaceOnUse">
<stop stop-color="#D84444"/>
<stop offset="1" stop-color="#960202"/>
</linearGradient>
</defs>
</svg>
