<svg width="36" height="35" viewBox="0 0 36 35" fill="none" xmlns="http://www.w3.org/2000/svg">
<path d="M18 35C27.665 35 35.5 27.165 35.5 17.5C35.5 7.83502 27.665 0 18 0C8.33502 0 0.5 7.83502 0.5 17.5C0.5 27.165 8.33502 35 18 35Z" fill="url(#paint0_linear_4820_320)"/>
<path d="M14.7918 25.5208C14.2249 25.5208 14.3212 25.3067 14.1257 24.7669L12.4585 19.28L25.2918 11.6666" fill="#C8DAEA"/>
<path d="M14.7915 25.5208C15.229 25.5208 15.4223 25.3207 15.6665 25.0833L17.9998 22.8144L15.0893 21.0593" fill="#A9C9DD"/>
<path d="M15.089 21.0597L22.1415 26.2702C22.9462 26.7143 23.5271 26.4844 23.7276 25.5231L26.5983 11.9951C26.8922 10.8168 26.1491 10.2823 25.3792 10.6318L8.52233 17.1318C7.37169 17.5933 7.3784 18.2352 8.31259 18.5213L12.6384 19.8714L22.6533 13.5532C23.126 13.2665 23.5599 13.4207 23.2038 13.7367" fill="url(#paint1_linear_4820_320)"/>
<defs>
<linearGradient id="paint0_linear_4820_320" x1="13.6267" y1="1.4595" x2="4.87675" y2="21.875" gradientUnits="userSpaceOnUse">
<stop stop-color="#37AEE2"/>
<stop offset="1" stop-color="#1E96C8"/>
</linearGradient>
<linearGradient id="paint1_linear_4820_320" x1="15.8091" y1="18.5749" x2="17.6789" y2="24.6233" gradientUnits="userSpaceOnUse">
<stop stop-color="#EFF7FC"/>
<stop offset="1" stop-color="white"/>
</linearGradient>
</defs>
</svg>
