<svg width="42" height="39" viewBox="0 0 42 39" fill="none" xmlns="http://www.w3.org/2000/svg">
<g filter="url(#filter0_d_4963_582)">
<path d="M6 14.7303C6 13.0734 7.34315 11.7303 9 11.7303H14.3333V24.6741H9C7.34315 24.6741 6 23.331 6 21.6741V14.7303Z" fill="white"/>
<path d="M23.9999 27.864C23.9999 30.6523 20.5282 31.9324 18.718 29.8116L14.3332 24.6742V11.7303L18.6847 6.44987C20.4743 4.27817 23.9999 5.54366 23.9999 8.35774L23.9999 27.864Z" fill="white"/>
<path fill-rule="evenodd" clip-rule="evenodd" d="M27.3334 23.4203C29.3988 23.0846 31.0001 20.6953 31.0001 17.7977C31.0001 14.9001 29.3988 12.5108 27.3334 12.1751V23.4203Z" fill="white"/>
<path fill-rule="evenodd" clip-rule="evenodd" d="M36 17.7978C36 23.8563 32.2153 28.8521 27.3334 29.5541V27.2029C31.1772 26.0399 34 22.1791 34 17.5956C34 13.012 31.1772 9.15122 27.3334 7.98824V6.0415C32.2153 6.74347 36 11.7392 36 17.7978Z" fill="white"/>
<line x1="5.10526" y1="31.578" x2="37.1053" y2="7.79607" stroke="#F5443B" stroke-width="3"/>
</g>
<defs>
<filter id="filter0_d_4963_582" x="0.210571" y="3.35181" width="41.7894" height="35.4301" filterUnits="userSpaceOnUse" color-interpolation-filters="sRGB">
<feFlood flood-opacity="0" result="BackgroundImageFix"/>
<feColorMatrix in="SourceAlpha" type="matrix" values="0 0 0 0 0 0 0 0 0 0 0 0 0 0 0 0 0 0 127 0" result="hardAlpha"/>
<feOffset dy="2"/>
<feGaussianBlur stdDeviation="2"/>
<feComposite in2="hardAlpha" operator="out"/>
<feColorMatrix type="matrix" values="0 0 0 0 0 0 0 0 0 0 0 0 0 0 0 0 0 0 0.5 0"/>
<feBlend mode="normal" in2="BackgroundImageFix" result="effect1_dropShadow_4963_582"/>
<feBlend mode="normal" in="SourceGraphic" in2="effect1_dropShadow_4963_582" result="shape"/>
</filter>
</defs>
</svg>
