<svg width="38" height="37" viewBox="0 0 38 37" fill="none" xmlns="http://www.w3.org/2000/svg">
<g filter="url(#filter0_d_4963_596)">
<path d="M4 14.7303C4 13.0735 5.34315 11.7303 7 11.7303H12.3333V24.6742H7C5.34315 24.6742 4 23.331 4 21.6742V14.7303Z" fill="white"/>
<path d="M21.9999 27.864C21.9999 30.6523 18.5282 31.9324 16.718 29.8115L12.3332 24.6742V11.7303L16.6847 6.44989C18.4743 4.27818 21.9999 5.54367 21.9999 8.35776L21.9999 27.864Z" fill="white"/>
<path fill-rule="evenodd" clip-rule="evenodd" d="M25.3333 23.4204C27.3987 23.0846 28.9998 20.6954 28.9998 17.7978C28.9998 14.9003 27.3987 12.5111 25.3333 12.1753V23.4204Z" fill="white"/>
<path fill-rule="evenodd" clip-rule="evenodd" d="M33.9999 17.7979C33.9999 23.8564 30.2153 28.8521 25.3334 29.5541V27.203C29.1772 26.04 32 22.1792 32 17.5957C32 13.0122 29.1772 9.15135 25.3334 7.98837V6.04163C30.2153 6.74366 33.9999 11.7394 33.9999 17.7979Z" fill="white"/>
</g>
<defs>
<filter id="filter0_d_4963_596" x="0" y="3.35181" width="37.9999" height="33.5182" filterUnits="userSpaceOnUse" color-interpolation-filters="sRGB">
<feFlood flood-opacity="0" result="BackgroundImageFix"/>
<feColorMatrix in="SourceAlpha" type="matrix" values="0 0 0 0 0 0 0 0 0 0 0 0 0 0 0 0 0 0 127 0" result="hardAlpha"/>
<feOffset dy="2"/>
<feGaussianBlur stdDeviation="2"/>
<feComposite in2="hardAlpha" operator="out"/>
<feColorMatrix type="matrix" values="0 0 0 0 0 0 0 0 0 0 0 0 0 0 0 0 0 0 0.5 0"/>
<feBlend mode="normal" in2="BackgroundImageFix" result="effect1_dropShadow_4963_596"/>
<feBlend mode="normal" in="SourceGraphic" in2="effect1_dropShadow_4963_596" result="shape"/>
</filter>
</defs>
</svg>
