<svg width="35" height="37" fill="none" xmlns="http://www.w3.org/2000/svg"><circle cx="17.5" cy="19.5" r="17.5" fill="#FFD234"/><path d="M27.216 15.58h-4.25a5.29 5.29 0 0 0-.67-1.853 4.981 4.981 0 0 0-1.216-1.386 5.066 5.066 0 0 0-1.66-.852 6.475 6.475 0 0 0-1.988-.296c-1.265 0-2.386.318-3.364.955-.977.629-1.742 1.553-2.295 2.773-.553 1.212-.83 2.693-.83 4.443 0 1.78.277 3.28.83 4.5.56 1.212 1.325 2.128 2.295 2.75.978.613 2.095.92 3.353.92.696 0 1.348-.09 1.954-.273a5.35 5.35 0 0 0 1.648-.83 5.063 5.063 0 0 0 1.943-3.16l4.25.024a9.152 9.152 0 0 1-1.034 3.114 9.18 9.18 0 0 1-2.057 2.568c-.849.735-1.84 1.31-2.977 1.727-1.137.41-2.398.614-3.784.614-2.046 0-3.872-.473-5.478-1.42-1.606-.947-2.87-2.315-3.795-4.102-.924-1.788-1.386-3.932-1.386-6.432 0-2.508.465-4.652 1.397-6.432.932-1.788 2.201-3.155 3.807-4.102 1.606-.947 3.424-1.42 5.455-1.42 1.295 0 2.5.18 3.613.545a9.257 9.257 0 0 1 2.977 1.602 8.526 8.526 0 0 1 2.148 2.568c.569 1.008.94 2.16 1.114 3.454z" fill="#000"/></svg>