<svg width="35" height="35" fill="none" xmlns="http://www.w3.org/2000/svg"><circle cx="17.5" cy="17.5" r="17.5" fill="#FFD234"/><path d="M18 6.375c-6.422 0-11.625 5.25-11.625 11.625 0 6.422 5.203 11.625 11.625 11.625 6.375 0 11.625-5.203 11.625-11.625 0-6.375-5.25-11.625-11.625-11.625zm0 2.25c5.156 0 9.375 4.219 9.375 9.375 0 5.203-4.219 9.375-9.375 9.375A9.343 9.343 0 0 1 8.625 18c0-5.156 4.172-9.375 9.375-9.375zm6.563 6.14-1.079-1.078c-.187-.234-.562-.234-.797 0l-6.609 6.563-2.812-2.813a.54.54 0 0 0-.797 0L11.39 18.47c-.188.234-.188.61 0 .797l4.265 4.312a.54.54 0 0 0 .797 0l8.11-8.015c.187-.235.187-.61 0-.797z" fill="#17B86B"/></svg>