<svg width="35" height="35" viewBox="0 0 35 35" fill="none" xmlns="http://www.w3.org/2000/svg">
<circle cx="17.5" cy="17.5" r="17.5" fill="#FFEEC1"/>
<path d="M24.5615 25.5322C23.9768 26.1559 23.0173 26.1559 22.4326 25.5322L17.5 20.2549L12.5674 25.5322C11.9827 26.1559 11.0232 26.1559 10.4385 25.5322C9.85382 24.9085 9.85382 23.8852 10.4385 23.2615L15.3862 18L10.4385 12.7385C9.85382 12.1148 9.85382 11.0915 10.4385 10.4678C11.0232 9.84408 11.9827 9.84408 12.5674 10.4678L17.5 15.7451L22.4326 10.4678C23.0173 9.84408 23.9768 9.84408 24.5615 10.4678C25.1462 11.0915 25.1462 12.1148 24.5615 12.7385L19.6138 18L24.5615 23.2615C25.1462 23.8852 25.1462 24.9085 24.5615 25.5322Z" fill="#17B86B"/>
</svg>
