<svg width="35" height="38" fill="none" xmlns="http://www.w3.org/2000/svg"><circle cx="17.5" cy="20.5" r="17.5" fill="#FFEEC1"/><path d="m28.75 15.063-6.844-.985-3.093-6.234c-.516-1.078-2.11-1.125-2.672 0l-3.047 6.234-6.89.985c-1.22.187-1.688 1.687-.798 2.578l4.922 4.828-1.172 6.797c-.187 1.218 1.125 2.156 2.203 1.593l6.141-3.234 6.094 3.234c1.078.563 2.39-.375 2.203-1.593l-1.172-6.797 4.922-4.828c.89-.891.422-2.391-.797-2.578zm-6.563 6.609 1.125 6.469-5.812-3.047-5.86 3.047 1.126-6.47-4.735-4.593 6.516-.937 2.953-5.907 2.906 5.907 6.516.937-4.735 4.594z" fill="#F95959"/></svg>